<svg width="83" height="48" viewBox="0 0 83 48" fill="none" xmlns="http://www.w3.org/2000/svg">
<path d="M12.3686 8.90625H19.8686V11.4063H15.1186V16.0313H18.8936V18.5312H15.1186V23.9063H19.8686V26.4062H12.3686V8.90625Z" fill="white"></path>
<path d="M25.2506 26.6563C23.9173 26.6563 22.9006 26.2812 22.2006 25.5312C21.5006 24.7646 21.1506 23.6729 21.1506 22.2563V13.0563C21.1506 11.6396 21.5006 10.5563 22.2006 9.80625C22.9006 9.03958 23.9173 8.65625 25.2506 8.65625C26.5839 8.65625 27.6006 9.03958 28.3006 9.80625C29.0006 10.5563 29.3506 11.6396 29.3506 13.0563V14.5563H26.7506V12.8813C26.7506 11.7313 26.2756 11.1563 25.3256 11.1563C24.3756 11.1563 23.9006 11.7313 23.9006 12.8813V22.4563C23.9006 23.5896 24.3756 24.1563 25.3256 24.1563C26.2756 24.1563 26.7506 23.5896 26.7506 22.4563V19.0313H25.3756V16.5313H29.3506V22.2563C29.3506 23.6729 29.0006 24.7646 28.3006 25.5312C27.6006 26.2812 26.5839 26.6563 25.2506 26.6563Z" fill="white"></path>
<path d="M33.175 18.9563L29.85 8.90625H32.775L34.65 15.3313H34.7L36.575 8.90625H39.25L35.925 18.9563V26.4062H33.175V18.9563Z" fill="white"></path>
<path d="M40.3889 8.90625H44.4389C45.8055 8.90625 46.8305 9.27292 47.5139 10.0063C48.1972 10.7396 48.5389 11.8146 48.5389 13.2313V14.9563C48.5389 16.3729 48.1972 17.4479 47.5139 18.1813C46.8305 18.9146 45.8055 19.2812 44.4389 19.2812H43.1389V26.4062H40.3889V8.90625ZM44.4389 16.7812C44.8889 16.7812 45.2222 16.6563 45.4389 16.4063C45.6722 16.1563 45.7889 15.7313 45.7889 15.1312V13.0563C45.7889 12.4562 45.6722 12.0312 45.4389 11.7812C45.2222 11.5313 44.8889 11.4063 44.4389 11.4063H43.1389V16.7812H44.4389Z" fill="white"></path>
<path d="M52.1312 11.4063H49.2562V8.90625H57.7562V11.4063H54.8812V26.4062H52.1312V11.4063Z" fill="white"></path>
<path d="M58.9877 8.90625H61.7377V26.4062H58.9877V8.90625Z" fill="white"></path>
<path d="M65.8223 8.90625H69.5473L72.3973 26.4062H69.6473L69.1473 22.9313V22.9813H66.0223L65.5223 26.4062H62.9723L65.8223 8.90625ZM68.8223 20.6063L67.5973 11.9563H67.5473L66.3473 20.6063H68.8223Z" fill="white"></path>
<path d="M73.6314 8.90625H77.0814L79.7564 19.3813H79.8064V8.90625H82.2564V26.4062H79.4314L76.1314 13.6312H76.0814V26.4062H73.6314V8.90625Z" fill="white"></path>
<path d="M15.9436 47.6562C14.6102 47.6562 13.6019 47.2812 12.9186 46.5312C12.2352 45.7646 11.8936 44.6729 11.8936 43.2563V42.2563H14.4936V43.4562C14.4936 44.5896 14.9686 45.1562 15.9186 45.1562C16.3852 45.1562 16.7352 45.0229 16.9686 44.7563C17.2186 44.4729 17.3436 44.0229 17.3436 43.4062C17.3436 42.6729 17.1769 42.0313 16.8436 41.4813C16.5102 40.9146 15.8936 40.2396 14.9936 39.4563C13.8602 38.4563 13.0686 37.5563 12.6186 36.7563C12.1686 35.9396 11.9436 35.0229 11.9436 34.0063C11.9436 32.6229 12.2936 31.5562 12.9936 30.8062C13.6936 30.0396 14.7102 29.6562 16.0436 29.6562C17.3602 29.6562 18.3519 30.0396 19.0186 30.8062C19.7019 31.5562 20.0436 32.6396 20.0436 34.0562V34.7813H17.4436V33.8813C17.4436 33.2813 17.3269 32.8479 17.0936 32.5812C16.8602 32.2979 16.5186 32.1562 16.0686 32.1562C15.1519 32.1562 14.6936 32.7146 14.6936 33.8312C14.6936 34.4646 14.8602 35.0563 15.1936 35.6063C15.5436 36.1563 16.1686 36.8229 17.0686 37.6063C18.2186 38.6063 19.0102 39.5146 19.4436 40.3313C19.8769 41.1479 20.0936 42.1062 20.0936 43.2062C20.0936 44.6396 19.7352 45.7396 19.0186 46.5063C18.3186 47.2729 17.2936 47.6562 15.9436 47.6562Z" fill="white"></path>
<path d="M23.7203 32.4062H20.8453V29.9062H29.3453V32.4062H26.4703V47.4062H23.7203V32.4062Z" fill="white"></path>
<path d="M30.5768 29.9062H34.6518C36.0684 29.9062 37.1018 30.2396 37.7518 30.9062C38.4018 31.5562 38.7268 32.5646 38.7268 33.9312V35.0063C38.7268 36.8229 38.1268 37.9729 36.9268 38.4563V38.5063C37.5934 38.7063 38.0601 39.1146 38.3268 39.7313C38.6101 40.3479 38.7518 41.1729 38.7518 42.2062V45.2812C38.7518 45.7812 38.7684 46.1896 38.8018 46.5063C38.8351 46.8063 38.9184 47.1062 39.0518 47.4062H36.2518C36.1518 47.1229 36.0851 46.8563 36.0518 46.6063C36.0184 46.3563 36.0018 45.9063 36.0018 45.2563V42.0563C36.0018 41.2563 35.8684 40.6979 35.6018 40.3813C35.3518 40.0646 34.9101 39.9062 34.2768 39.9062H33.3268V47.4062H30.5768V29.9062ZM34.3268 37.4062C34.8768 37.4062 35.2851 37.2646 35.5518 36.9813C35.8351 36.6979 35.9768 36.2229 35.9768 35.5562V34.2063C35.9768 33.5729 35.8601 33.1146 35.6268 32.8313C35.4101 32.5479 35.0601 32.4062 34.5768 32.4062H33.3268V37.4062H34.3268Z" fill="white"></path>
<path d="M40.5598 29.9062H48.0598V32.4062H43.3098V37.0312H47.0848V39.5312H43.3098V44.9062H48.0598V47.4062H40.5598V29.9062Z" fill="white"></path>
<path d="M49.5418 29.9062H57.0418V32.4062H52.2918V37.0312H56.0668V39.5312H52.2918V44.9062H57.0418V47.4062H49.5418V29.9062Z" fill="white"></path>
<path d="M60.6738 32.4062H57.7988V29.9062H66.2988V32.4062H63.4238V47.4062H60.6738V32.4062Z" fill="white"></path>
<path d="M71.1053 47.6562C69.7719 47.6562 68.7636 47.2812 68.0803 46.5312C67.3969 45.7646 67.0553 44.6729 67.0553 43.2563V42.2563H69.6553V43.4562C69.6553 44.5896 70.1303 45.1562 71.0803 45.1562C71.5469 45.1562 71.8969 45.0229 72.1303 44.7563C72.3803 44.4729 72.5053 44.0229 72.5053 43.4062C72.5053 42.6729 72.3386 42.0313 72.0053 41.4813C71.6719 40.9146 71.0553 40.2396 70.1553 39.4563C69.0219 38.4563 68.2303 37.5563 67.7803 36.7563C67.3303 35.9396 67.1053 35.0229 67.1053 34.0063C67.1053 32.6229 67.4553 31.5562 68.1553 30.8062C68.8553 30.0396 69.8719 29.6562 71.2053 29.6562C72.5219 29.6562 73.5136 30.0396 74.1803 30.8062C74.8636 31.5562 75.2053 32.6396 75.2053 34.0562V34.7813H72.6053V33.8813C72.6053 33.2813 72.4886 32.8479 72.2553 32.5812C72.0219 32.2979 71.6803 32.1562 71.2303 32.1562C70.3136 32.1562 69.8553 32.7146 69.8553 33.8312C69.8553 34.4646 70.0219 35.0563 70.3553 35.6063C70.7053 36.1563 71.3303 36.8229 72.2303 37.6063C73.3803 38.6063 74.1719 39.5146 74.6053 40.3313C75.0386 41.1479 75.2553 42.1062 75.2553 43.2062C75.2553 44.6396 74.8969 45.7396 74.1803 46.5063C73.4803 47.2729 72.4553 47.6562 71.1053 47.6562Z" fill="white"></path>
<path d="M-0.000976562 17.1675V0.894531L10.4797 9.00347L-0.000976562 17.1675Z" fill="white"></path>
<path d="M-0.000976562 37.5464V21.2734L10.4797 29.3824L-0.000976562 37.5464Z" fill="#FFCB00"></path>
<path d="M10.4797 47.9214V31.6484L-0.000976562 39.7574L10.4797 47.9214Z" fill="#122D3D"></path>
<path d="M10.4797 27.4409V11.168L-0.000976562 19.2769L10.4797 27.4409Z" fill="#122D3D"></path>
</svg>
